# xmcd
#
# Track frame offsets:
#	150
#	10182
#	24294
#	45325
#	67160
#	86432
#	98480
#	102234
#	121982
#	140572
#	156301
#	175386
#	198096
#	220449
#
# Disc length: 2989
#
# Revision: 1
# Processed by: cddbd v1.5.1PL0 Copyright (c) Steve Scherf et al.
# Submitted via: CDex 1.50beta10
# Normalized: r0:TDELIM( - )
#
DISCID=b60bab0e
DTITLE=Uwe Oberg - monken
DYEAR=2001
DGENRE=Jazz
TTITLE0=Monk - Off minor
TTITLE1=Monk - Bye-Ya
TTITLE2=Monk - Monk's Mood
TTITLE3=Herbie Nichols - 2000 Skiddoo
TTITLE4=Monk - Ruby My Dear
TTITLE5=Monk - Work
TTITLE6=Oberg - Not Thinking
TTITLE7=Monk - Ugly Beauty
TTITLE8=John Coltrane - After The Rain
TTITLE9=Herbie Nichols - Step Tempest
TTITLE10=Oberg - Off Off
TTITLE11=Monk - Pannonica
TTITLE12=Eric Dolphy - G.W.
TTITLE13=Monk - Think Of One
EXTD=YEAR: 2001
EXTT0=
EXTT1=
EXTT2=
EXTT3=
EXTT4=
EXTT5=
EXTT6=
EXTT7=
EXTT8=
EXTT9=
EXTT10=
EXTT11=
EXTT12=
EXTT13=
PLAYORDER=
